<svg xmlns="http://www.w3.org/2000/svg" viewBox="0 0 575.52 765.29"><defs><style>.cls-1{fill:#cca62d;}.cls-2{fill:#263e6b;}.cls-3{fill:#94345c;}.cls-4{fill:#231f20;}.cls-5,.cls-9{fill:#176d38;}.cls-10,.cls-5,.cls-6,.cls-7,.cls-8{stroke:#231f20;}.cls-5,.cls-6{stroke-width:8px;}.cls-10,.cls-6,.cls-7,.cls-8{fill:none;}.cls-7{stroke-width:8.06px;}.cls-8{stroke-width:8.01px;}.cls-10{stroke-width:4px;}</style></defs><title>Medica schild</title><g id="Layer_4" data-name="Layer 4"><rect class="cls-1" x="4.02" y="4.03" width="567.5" height="130"/></g><g id="Layer_6" data-name="Layer 6"><polygon class="cls-2" points="570.24 503.97 557.17 566.26 527.99 628.02 475.85 691.6 416.23 730.02 349.59 753.94 288.18 760.69 288.18 425.93 288.18 134.03 571.52 134.03 570.24 503.97"/><polygon class="cls-3" points="288.18 760.69 264.39 760.7 204.49 748.27 151.91 726.12 100.31 689.96 46.53 626.42 14.03 557.22 4.02 495.31 4.02 134.03 288.18 134.03 288.18 760.69"/></g><g id="Layer_5" data-name="Layer 5"><polygon class="cls-4" points="37.02 20.78 74.76 20.76 84.77 74.43 96.18 20.76 134.55 20.76 146.05 116.26 113.05 116.26 110.89 54.01 96.97 116.26 71.89 116.26 59.6 54.13 57.29 116.26 22.55 116.26 37.02 20.78"/><polygon class="cls-4" points="157.3 20.76 216.85 20.76 216.85 42.85 188.77 42.85 188.77 57.31 214.18 57.31 214.18 79.24 188.77 79.24 188.77 94.76 216.85 94.76 216.85 116.26 157.3 116.24 157.3 20.76"/><path class="cls-4" d="M321.82,81.77Q315.28,70.15,305.18,65t-30.89-5.16h-25.2v95.5l25.52,0q18.52,0,26-2.34a35.68,35.68,0,0,0,14-8.44,42.08,42.08,0,0,0,10.1-15.35,54.66,54.66,0,0,0,3.66-20.28Q328.36,93.39,321.82,81.77Zm-22.35,43.37c-2.38,4.5-2.54,5.33-6.28,7.24s-5.76,1.46-14.06,1.46V81.92c11.28,0,11.65-.61,16.75,4.42,5.66,5.59,7.16,12,7.16,22.17Q303,118.38,299.47,125.14Z" transform="translate(-13.48 -39.07)"/><polygon class="cls-4" points="330.41 20.76 362.18 20.76 362.18 116.26 330.28 116.26 330.41 20.76"/><path d="M532.87,59.83H495.62l-25.94,95.5h31.2l2.06-13,22.39.11,2.12,12.92H560Zm-25.43,58.48,7.23-36.39,6,36.39Z" transform="translate(-13.48 -39.07)"/><path class="cls-4" d="M460.89,151.06c-5.1,2.27-14.74,4.16-25.7,4.16-29.86,0-48.95-18.14-48.95-47.25,0-27,18.52-49.14,52.92-49.14a66.63,66.63,0,0,1,21.92,3.59l-4.54,21.36c-3.4-1.51-8.5-2.83-16.06-2.83-15.12,0-24.95,10.77-24.76,25.89,0,17,11.34,25.89,25.33,25.89a44.31,44.31,0,0,0,16.44-2.83Z" transform="translate(-13.48 -39.07)"/></g><g id="Layer_3" data-name="Layer 3"><polygon class="cls-5" points="288.18 625.89 288.02 414.68 571.52 186.3 571.52 393.55 288.18 625.89"/></g><g id="Layer_9" data-name="Layer 9"><ellipse class="cls-4" cx="539.35" cy="566.76" rx="5.83" ry="11.5"/><path class="cls-4" d="M551.33,544h4.33l-2-251.33S553.33,288,549,288c-4,0-4.33,4.33-4.33,4.33Z" transform="translate(-13.48 -39.07)"/><path class="cls-4" d="M526,485.67s2.14,13.59,1,18.21c-.95,3.71-4.12,12-12.64,12-3.31,0-6.25-3.08-8.11-6.59a39.7,39.7,0,0,1-3.28-8.35c-1.59-5.95-.41-18.13.53-24.22,1.56-10.11,8.1-34.86,9.84-45.92a170.32,170.32,0,0,0,1.27-21.08c0-6.71-1.86-20.31-4.73-26.37-1.72-3.64-4.08-10.12-7.33-13.12-1.79-1.65-7.29-3.62-11.42-3.62-2.94,0-8.5,2-8.5,2l-.62-7.37s8.1-3.52,11-3.75c5.25-.43,11.24.7,14.88,3.5,3.79,2.92,7.4,12.37,9,16.87s3.19,15.23,3.54,20c.61,8.37-1,24.87-2.56,33.11-2.62,13.87-5.43,21.84-7,30.19-1,5.3-3.13,16-3.13,16s-3.7,16-.75,20.12a10.12,10.12,0,0,0,6.36,4.1,15.64,15.64,0,0,0,6.5.13c1.33-.24,3.93-.94,4.5-3C525.26,495.17,526,485.67,526,485.67Z" transform="translate(-13.48 -39.07)"/><path class="cls-4" d="M463.72,508.84l7.24,3.37s2.62-11.8,3.44-15.75c2.42-11.71,3.75-25.44,4.69-34.25,3.23-30.38,1.74-15.49,3.81-38.94.7-7.91.72-23.81.67-31.75,0-5.58-.79-22.31-.79-22.31l-.62-7.37s-1.94-11-4.06-15.24c-1.27-2.57-4.3-7.52-6.31-9.56a23.35,23.35,0,0,0-5.69-3.89A24.33,24.33,0,0,0,461,332c-.85-.09-2.57-.45-3.44-.53-2.06-.2-8.27-.21-8.27-.21l1,5.66s6.42-1.46,7.89-1.28a32,32,0,0,1,5.47,1.18,15.09,15.09,0,0,1,3.84,2.61,46.51,46.51,0,0,1,5.07,7.65,59.85,59.85,0,0,1,2.52,7.3,45.25,45.25,0,0,1,1.83,9.12c.2,2.77.31,4.42.54,8.44.32,5.34,1,14.9,1.19,19.87.41,9.49.41,9.49.21,27.31-.12,10.65-2.94,31.8-3.81,42.44-.58,7.15-1.17,12.63-2,18.24a157,157,0,0,1-2.85,15.52A42.74,42.74,0,0,1,463.72,508.84Z" transform="translate(-13.48 -39.07)"/><path class="cls-4" d="M431.91,502.54l7.24,3.78s2.62-13.23,3.44-17.66c2.42-13.13,3.72-28.52,4.69-38.41,2.88-29.28,2.27-16.76,3.81-43.66.51-8.88.72-26.7.67-35.6,0-6.26-.79-25-.79-25l-.62-8.27s-1.94-12.31-4.06-17.09c-1.27-2.88-4.3-8.43-6.31-10.72a23.45,23.45,0,0,0-5.69-4.36,81.06,81.06,0,0,0-9.52-3c-.85-.11-8-1.22-10.87-1.37-4.12-.23-6.75-.59-12.66.66a44.38,44.38,0,0,0-14.53,6.47c-2.72,1.75-6.87,7.14-8.69,9.81a119.79,119.79,0,0,0-11.84,23.09c-9.16,24.34-9.73,25.58-12.24,45.22-.53,4.12-3.4,30-1.42,46.87a233.57,233.57,0,0,0,8,37.5c1.48,4.56,5.77,20.59,10.5,31.75,2.46,5.79,11.79,19.8,15.25,25.5,2.29,3.77,14.79,17.21,22.75,23.75a81.33,81.33,0,0,0,13.52,9.12c6.7,3.36,12.27,4.84,15.8,4.84,13,0,14.06-6.09,16.06-11,.81-2,.82-6.72.34-8.81-.71-3.09-3.83-8.74-6.34-10.66s-9.07-3.74-12.29-3.86c-4.37-.15-12,.16-16,1.89a44,44,0,0,0-14.12,10.21c-4.56,4.93-12.79,15.72-15.87,21.69a147.78,147.78,0,0,0-10.31,28.4c-1,4.63-1.86,16.2-2.17,20.93-.38,5.84-1,21.76-.5,27.59A63.78,63.78,0,0,0,380,656c.86,2.78,3.33,9.34,7.08,9.5,5.25.22,8.54-6.08,9.33-9.08,2.5-9.42,2.06-18.26,1.92-24.42-.17-7.37-1.4-21.76-2.83-29-2-10.08-7-30.19-11.47-39.46-2.07-4.33-7.28-12.51-10.53-16s-11.45-9.8-16-11.81c-3.76-1.67-12.14-2.87-16.25-3.12-3.76-.23-11.5.9-14.94,2.44-3.16,1.41-7.94,5.75-9.25,10.31-.87,3,1.17,9.54,2.75,12.25a23.29,23.29,0,0,0,7.69,6.94c2.74,1.26,8.78,2.17,11.75,2a50.59,50.59,0,0,0,11.44-2.81,70.77,70.77,0,0,0,16.22-10.16c4.3-3.89,11.42-13.26,14.22-18.34,4.63-8.43,12.63-26.09,15.13-35.37,2.74-10.18,4.87-31.29,5.58-41.81.84-12.39.5-37.25.17-49.67-.66-24.51-3.5-98-3.5-98s.49-23.26.88-31c.26-5.18,1.29-20.67,1.29-20.67s-11.94,9.42-16.17,12.21c-8.79,5.81-14.78,8.39-18.79,9.75-4.92,1.67-15.6,1.24-17.37.87-4.08-.83-6.93-1-10.31-4.31a19.62,19.62,0,0,1-6.33-10.55,88.41,88.41,0,0,1-1.52-16c0-2.15,1.74-9.61,2.67-12,1.21-3.17,2.18-7.29,3.42-8.83a27.23,27.23,0,0,1,6.42-6,49.11,49.11,0,0,1,6.77-3.56,53.24,53.24,0,0,1,14.31-2.37,30.84,30.84,0,0,1,11.7,2.33c5.07,1.84,21,7.41,26.88,9.19,5,1.53,28.61,8.38,29.67,8,.41-.15,17.33,1.19,30-1.33a41.49,41.49,0,0,0,13-5.75c3.25-2.65,13-11.75,16.78-23.31-2.16,1.15-16.42,16.48-19.65,18.18-1.76.93-7.19,1.81-11.72,2.47-3.79.55-20.23.26-24.41-.59-11-2.24-17.47-5.36-26.5-8.33-6.47-2.13-14.69-5.54-19.87-7.54-4.42-1.7-18.31-4.21-22.21-4.21a72.28,72.28,0,0,0-15.48,1.71c-3.9,1-10.83,5.35-12.69,7.21a76.31,76.31,0,0,0-8.33,10.67c-2.07,3.65-3.37,8.65-5.33,15.39s-1.5,16.61-.33,22.2c1.2,5.73,4.18,13.4,7.63,16.79,3,3,5.43,4.47,14.08,5.75,4.91.73,13.14,1.07,18.71-.8,4.12-1.38,13.77-7,18-9.87,3.18-2.14,12.21-9.22,12.1-8.46-.67,4.86-1.3,11.81-1.65,15-.91,8.39-2.12,25.24-2.33,33.68-.61,23.49.31,70.51,1,94,.39,13.12,1.9,39.38,1.5,52.5-.34,11.11-3,33.35-5.9,44.08-1.71,6.33-10.12,24.19-10.12,24.19s-8.72,14.71-12.56,18.87c-3,3.26-10.58,8.35-14.75,9.87-2.18.8-6.93,1.26-9.25,1.44a67.38,67.38,0,0,1-7.5-.31c-1.75-.12-3.63-.6-6.5-2.62a13.84,13.84,0,0,1-3.94-3.44,8.65,8.65,0,0,1-1.31-6.12c.28-2.7,5.25-6.12,7.69-7.31,2.26-1.11,7.58-1.15,10-.64,4,.83,11,5.62,14.12,8.22a130.8,130.8,0,0,1,10.24,9.64c1.91,2.12,4.74,7,6.32,9.39,4.44,6.65,10.86,21.45,13.5,29,2.81,8,6,24.81,7.58,33.17,1.11,5.9,1.63,12.08,1.63,21.79,0,4.37-3.82,9.48-6.22,9.63-2,.13-4.33-4.69-4.93-6.65-1.39-4.51-2.42-12.47-2.73-16.85-.18-2.54-.1-6.55-.08-9.1,0-1.71.25-5.65.33-7.36.41-8.06-.18-15.32,2-24.87a132,132,0,0,1,9.75-26.75c3.2-6.32,13.82-20,18.81-25a42.09,42.09,0,0,1,10.81-7.27c3.21-1.21,9.87-1.81,13.29-1.67,2.73.11,8.5.88,10.8,2.34s5.84,6.07,6.41,8.72a14.73,14.73,0,0,1-.81,8.87A17,17,0,0,1,446,561c-3.12,2-7.12,3.06-15.43,0-5.6-2.06-15.79-9.05-20.33-12.49-7.43-5.63-19.06-20.69-23.74-28.76-5.64-9.73-11.92-31.62-14.75-42.5a283.91,283.91,0,0,1-5-28.25c-.82-6.85-2.1-20.61-2.5-27.5-.32-5.56-.75-14.58-.75-22.25a175.49,175.49,0,0,1,2.25-26.5c2.12-12.32,6-25.8,6.16-26.3,2-6.14,3.29-11,5.09-15.58,1.68-4.33,4-10.48,6.88-14.31,3.13-4.12,8.75-7.87,11.59-8.78a41,41,0,0,1,7.41-1.72,96.92,96.92,0,0,1,12.13.31,81.82,81.82,0,0,1,9.06,2.69,40.15,40.15,0,0,1,5.6,3.53,38.17,38.17,0,0,1,6,8.57,70.25,70.25,0,0,1,3.17,7.5,36.08,36.08,0,0,1,2.54,10.64c.29,2.57,1,7.09,1.63,12.2.68,5.54,1.71,14.25,2,19.83.65,12.71.63,6.17.83,30.63.1,11.94-1.69,35.66-2.56,47.59-.59,8-1.17,14.17-2,20.45-.72,5.38-1.4,10.89-2.85,17.4A50.34,50.34,0,0,1,431.91,502.54Z" transform="translate(-13.48 -39.07)"/></g><g id="Layer_2" data-name="Layer 2"><path class="cls-6" d="M585,516.61c0,156.71-127,283.75-283.75,283.75S17.48,673.32,17.48,516.61" transform="translate(-13.48 -39.07)"/><line class="cls-7" x1="0.05" y1="4.03" x2="575.5" y2="4.03"/><line class="cls-6" x1="4.02" y1="477.74" x2="4.02" y2="5.24"/><line class="cls-8" x1="571.52" y1="4.03" x2="571.52" y2="477.74"/><line class="cls-6" x1="4.02" y1="134.03" x2="571.52" y2="134.03"/><line class="cls-6" x1="288.18" y1="133.9" x2="288.18" y2="760.57"/></g><g id="Layer_10" data-name="Layer 10"><path class="cls-9" d="M193.94,373.14c16.4,0,29.7-12.82,29.7-28.64,0-14.39-9.39-28.87-23.44-31.36-7.43-1.73-18-2.81-29.71-2.81h-2.33c-5.79,0-11.29.07-16.25.24q-3.45.12-6.52.32c-4.31-4.61-11.66-7.65-20-7.65-13,0-23.55,7.35-24,16.54,0,.11,0,.22,0,.33h0L74.2,334.38h0c-1.71.82-2.23,1.66-2.33,3.18-.14,2.12,2.54,3.88,5.86,4.15h0L96,343.45h0c4.13,4.81,17.1,9.2,28,9.2,10.55,0,19.51-3,22.67-7.19h0c1.93-2.24,6.74-3.83,12.39-3.83,1.85,0,3.63,0,5.28.12a25.27,25.27,0,0,0-.17,2.75,27.78,27.78,0,0,0,.49,5.17c-14.67,6.78-25.13,24.45-25.13,45.18,0,21.22,11,39.22,26.18,45.63l.18,17.16c-16.85,7.23-28.73,24.54-28.73,44.76,0,20.61,12.33,38.2,29.69,45.17l.24,22.59c-17.28,7.52-29.52,26.12-29.52,47.89,0,22.2,12.72,41.1,30.54,48.32l.11,10.8c-17.37,9.09-26.85,26.27-26.85,46,0,.61,0,1.22,0,1.82,7.73-11.42,16.18-17.94,27.09-21.3l.07,6.64h15l0-8c12-1.92,20.31-7.6,20.31-23.45,0-15.29-8.41-36.61-20.06-48l.16-43.95c12.3-3.45,21.59-11.93,21.59-25.94,0-15.06-8.55-37.22-21.33-45.58l.14-38c16.55-1.1,19.24-7.21,19.24-28.19,0-16.26-5-29.57-19-37.75l.14-39.67A30.59,30.59,0,0,0,193.94,373.14Z" transform="translate(-13.48 -39.07)"/><path class="cls-10" d="M193.94,373.14c16.4,0,29.7-12.82,29.7-28.64,0-14.39-9.39-28.87-23.44-31.36-7.43-1.73-18-2.81-29.71-2.81h-2.33c-5.79,0-11.29.07-16.25.24q-3.45.12-6.52.32c-4.31-4.61-11.66-7.65-20-7.65-13,0-23.55,7.35-24,16.54,0,.11,0,.22,0,.33h0L74.2,334.38h0c-1.71.82-2.23,1.66-2.33,3.18-.14,2.12,2.54,3.88,5.86,4.15h0L96,343.45h0c4.13,4.81,17.1,9.2,28,9.2,10.55,0,19.51-3,22.67-7.19h0c1.93-2.24,6.74-3.83,12.39-3.83,1.85,0,3.63,0,5.28.12a25.27,25.27,0,0,0-.17,2.75,27.78,27.78,0,0,0,.49,5.17c-14.67,6.78-25.13,24.45-25.13,45.18,0,21.22,11,39.22,26.18,45.63l.18,17.16c-16.85,7.23-28.73,24.54-28.73,44.76,0,20.61,12.33,38.2,29.69,45.17l.24,22.59c-17.28,7.52-29.52,26.12-29.52,47.89,0,22.2,12.72,41.1,30.54,48.32l.11,10.8c-17.37,9.09-26.85,26.27-26.85,46,0,.61,0,1.22,0,1.82,7.73-11.42,16.18-17.94,27.09-21.3l.07,6.64h15l0-8c12-1.92,20.31-7.6,20.31-23.45,0-15.29-8.41-36.61-20.06-48l.16-43.95c12.3-3.45,21.59-11.93,21.59-25.94,0-15.06-8.55-37.22-21.33-45.58l.14-38c16.55-1.1,19.24-7.21,19.24-28.19,0-16.26-5-29.57-19-37.75l.14-39.67A30.59,30.59,0,0,0,193.94,373.14Z" transform="translate(-13.48 -39.07)"/></g><g id="Layer_7" data-name="Layer 7"><path class="cls-1" d="M166,506l18.52,10,.32-70.68-19.69-5.23Zm2.05,160.19,0,2,.54,42.13,15-.13.18-39-2.78-1.07Zm-1.52-118.78.94,73.08L184,630.66l.35-76.68c-1.22-.63-5.17-2.64-6.13-3C175,549.89,166.82,547.5,166.56,547.43Zm6.9-322.37c-12.53,0-22.69,20.87-22.69,46.62,0,15.9,3.88,29.91,9.79,38.32h12l11.34.52,1.86.27c6.23-8.31,10.35-22.71,10.35-39.1C196.15,245.94,186,225.06,173.46,225.06Zm-9.53,116.88.81,63.56L185,411.74l.32-69.87-21.42.07Z" transform="translate(-13.48 -39.07)"/><path class="cls-10" d="M166,506l18.52,10,.32-70.68-19.69-5.23Zm2.05,160.19,0,2,.54,42.13,15-.13.18-39-2.78-1.07Zm-1.52-118.78.94,73.08L184,630.66l.35-76.68c-1.22-.63-5.17-2.64-6.13-3C175,549.89,166.82,547.5,166.56,547.43Zm6.9-322.37c-12.53,0-22.69,20.87-22.69,46.62,0,15.9,3.88,29.91,9.79,38.32h12l11.34.52,1.86.27c6.23-8.31,10.35-22.71,10.35-39.1C196.15,245.94,186,225.06,173.46,225.06Zm-9.53,116.88.81,63.56L185,411.74l.32-69.87-21.42.07Z" transform="translate(-13.48 -39.07)"/></g></svg>