<?xml version="1.0" encoding="utf-8"?>
<!-- Generator: Adobe Illustrator 21.1.0, SVG Export Plug-In . SVG Version: 6.00 Build 0)  -->
<svg version="1.1" id="Laag_1" xmlns="http://www.w3.org/2000/svg" xmlns:xlink="http://www.w3.org/1999/xlink" x="0px" y="0px"
	 viewBox="0 0 170 67" style="enable-background:new 0 0 170 67;" xml:space="preserve">
<style type="text/css">
	.st0{fill:#383638;}
</style>
<g>
	<path class="st0" d="M27.1,26.5c1.2-0.2,2.8-0.3,4.5-0.3c2.8,0,4.6,0.5,6,1.6c1.5,1.1,2.5,2.9,2.5,5.5c0,2.8-1,4.8-2.4,6
		c-1.6,1.3-3.9,1.9-6.8,1.9c-1.7,0-2.9-0.1-3.8-0.2V26.5z M30.5,38.5c0.3,0.1,0.7,0.1,1.2,0.1c3,0,5-1.6,5-5.2
		c0-3.1-1.8-4.7-4.6-4.7c-0.7,0-1.2,0.1-1.5,0.1V38.5z"/>
	<path class="st0" d="M44.8,36.8c0.1,1.4,1.5,2,3,2c1.1,0,2.1-0.2,2.9-0.4l0.4,2.2c-1.1,0.4-2.4,0.7-3.9,0.7c-3.6,0-5.7-2.1-5.7-5.4
		c0-2.7,1.7-5.7,5.4-5.7c3.4,0,4.8,2.7,4.8,5.3c0,0.6-0.1,1.1-0.1,1.3H44.8z M48.7,34.5c0-0.8-0.3-2.2-1.9-2.2c-1.4,0-2,1.3-2.1,2.2
		H48.7z"/>
	<path class="st0" d="M53.7,38.1c0.6,0.4,1.9,0.8,2.9,0.8c1,0,1.4-0.3,1.4-0.9s-0.3-0.8-1.6-1.2c-2.2-0.7-3.1-1.9-3-3.2
		c0-2,1.7-3.5,4.3-3.5c1.2,0,2.4,0.3,3,0.6L60.2,33c-0.5-0.3-1.4-0.6-2.3-0.6c-0.8,0-1.3,0.3-1.3,0.9c0,0.5,0.4,0.8,1.7,1.2
		c2,0.7,2.9,1.7,2.9,3.3c0,2-1.6,3.5-4.6,3.5c-1.4,0-2.6-0.3-3.5-0.7L53.7,38.1z"/>
	<path class="st0" d="M66.6,27.4c0,0.9-0.7,1.7-1.8,1.7c-1,0-1.7-0.7-1.7-1.7c0-1,0.7-1.7,1.7-1.7C65.9,25.7,66.6,26.4,66.6,27.4z
		 M63.2,41V30.4h3.3V41H63.2z"/>
	<path class="st0" d="M79.4,30.4c0,0.7-0.1,1.6-0.1,3.2v6c0,2.1-0.4,3.7-1.6,4.8c-1.2,1-2.8,1.3-4.3,1.3c-1.4,0-2.9-0.3-3.8-0.8
		l0.7-2.5c0.7,0.4,1.9,0.8,3.1,0.8c1.6,0,2.8-0.9,2.8-2.8v-0.7h0c-0.6,0.9-1.7,1.4-2.9,1.4c-2.6,0-4.5-2.1-4.5-5.2
		c0-3.4,2.2-5.6,4.8-5.6c1.5,0,2.4,0.6,2.9,1.5h0l0.1-1.3H79.4z M76,34.7c0-0.2,0-0.4-0.1-0.6c-0.2-0.9-0.9-1.5-1.8-1.5
		c-1.2,0-2.2,1.1-2.2,3c0,1.6,0.8,2.8,2.2,2.8c0.9,0,1.5-0.6,1.7-1.4c0.1-0.2,0.1-0.6,0.1-0.9V34.7z"/>
	<path class="st0" d="M82,33.8c0-1.3,0-2.5-0.1-3.4h2.9l0.2,1.5H85c0.4-0.7,1.5-1.7,3.3-1.7c2.2,0,3.8,1.4,3.8,4.6V41h-3.3v-5.9
		c0-1.4-0.5-2.3-1.7-2.3c-0.9,0-1.5,0.6-1.7,1.2c-0.1,0.2-0.1,0.5-0.1,0.8V41H82V33.8z"/>
	<path class="st0" d="M94.7,41c0-0.7,0.1-2,0.1-3.2V25.5h3.3v6.1h0c0.6-0.9,1.7-1.5,3.2-1.5c2.6,0,4.4,2.1,4.4,5.4
		c0,3.8-2.4,5.8-4.9,5.8c-1.2,0-2.4-0.5-3.2-1.7h0L97.5,41H94.7z M98.1,36.5c0,0.2,0,0.4,0.1,0.6c0.2,0.9,1,1.6,1.9,1.6
		c1.4,0,2.3-1.1,2.3-3c0-1.7-0.7-3-2.3-3c-0.9,0-1.7,0.7-1.9,1.6c0,0.2-0.1,0.4-0.1,0.6V36.5z"/>
	<path class="st0" d="M107.8,25.5h3.3V41h-3.3V25.5z"/>
	<path class="st0" d="M119.9,41l-0.2-1.1h-0.1c-0.7,0.9-1.8,1.3-3.1,1.3c-2.2,0-3.5-1.6-3.5-3.3c0-2.8,2.5-4.1,6.3-4.1v-0.2
		c0-0.6-0.3-1.4-1.9-1.4c-1.1,0-2.2,0.4-2.9,0.8l-0.6-2.1c0.7-0.4,2.2-0.9,4.1-0.9c3.6,0,4.7,2.1,4.7,4.6v3.7c0,1,0,2,0.2,2.6H119.9
		z M119.5,36c-1.7,0-3.1,0.4-3.1,1.7c0,0.9,0.6,1.3,1.3,1.3c0.8,0,1.5-0.5,1.7-1.2c0-0.2,0.1-0.4,0.1-0.6V36z"/>
	<path class="st0" d="M125.3,38.1c0.6,0.4,1.9,0.8,2.9,0.8c1,0,1.4-0.3,1.4-0.9s-0.3-0.8-1.6-1.2c-2.2-0.7-3.1-1.9-3-3.2
		c0-2,1.7-3.5,4.3-3.5c1.2,0,2.4,0.3,3,0.6l-0.6,2.3c-0.5-0.3-1.4-0.6-2.3-0.6c-0.8,0-1.3,0.3-1.3,0.9c0,0.5,0.4,0.8,1.7,1.2
		c2,0.7,2.9,1.7,2.9,3.3c0,2-1.6,3.5-4.6,3.5c-1.4,0-2.6-0.3-3.5-0.7L125.3,38.1z"/>
	<path class="st0" d="M138.6,27.3v3.1h2.4v2.4h-2.4v3.9c0,1.3,0.3,1.9,1.3,1.9c0.4,0,0.7,0,1-0.1l0,2.5c-0.4,0.2-1.2,0.3-2.2,0.3
		c-1.1,0-2-0.4-2.5-0.9c-0.6-0.6-0.9-1.7-0.9-3.2v-4.4h-1.4v-2.4h1.4V28L138.6,27.3z"/>
</g>
</svg>
